<?xml version="1.0" encoding="UTF-8"?>
<svg width="1479px" height="329px" viewBox="0 0 1479 329" version="1.1" xmlns="http://www.w3.org/2000/svg" xmlns:xlink="http://www.w3.org/1999/xlink">
    <g id="Page-1" stroke="none" stroke-width="1" fill="none" fill-rule="evenodd">
        <g id="logo" transform="translate(75.000000, 40.000000)" fill-rule="nonzero">
            <path d="M18.3736583,173.333056 C5.72231659,153.412382 0,134.369253 0,111.492539 C0,49.9169098 49.0248199,0 109.5,0 C169.97518,0 219,49.9169098 219,111.492539 C219,134.369253 213.277683,153.412382 200.626342,173.333056 C175.2,215.552238 125.925,249 109.5,249 C93.075,249 43.8,215.552238 18.3736583,173.333056 Z" id="body" fill="#4991F2"></path>
            <path d="M122.40506,54.9725023 L122.55088,54.9725023 L122.40506,54.9725023 Z M122.40506,45 L121.675961,45 C119.488663,45.2933089 117.301364,46.31989 115.259886,48.6663611 L114.822426,49.2529789 L58.9734077,123.460128 C56.6402895,126.686526 56.3486497,130.352887 58.2443083,134.019248 C59.994147,137.245646 63.3480045,139.445463 67.1393216,139.445463 L95.8658402,139.592117 L86.679187,193.267644 C85.9500876,197.813932 88.4290257,202.36022 92.6578026,204.266728 C93.9701816,204.853346 95.2825606,205 96.7407595,205 C99.6571573,205 102.281915,203.533456 104.323394,200.893676 L160.026592,120.380385 C162.359711,117.153987 162.65135,113.487626 160.755692,109.821265 C158.860033,106.154904 155.943635,104.39505 151.860678,104.39505 L123.13416,104.39505 L132.174993,57.3189734 C132.320813,56.5857012 132.466633,55.7057745 132.466633,54.9725023 C132.466633,49.5462878 127.946216,45 122.84252,45 L122.40506,45 Z" id="flash" fill="#FFFFFF"></path>
        </g>
        <path d="M406.244,124.416 L406.244,164.016 L458.372,164.016 L458.372,173.232 L406.244,173.232 L406.244,216 L395.588,216 L395.588,115.2 L464.708,115.2 L464.708,124.416 L406.244,124.416 Z M553.204,189.072 L497.044,189.072 L484.948,216 L473.86,216 L519.94,115.2 L530.452,115.2 L576.532,216 L565.3,216 L553.204,189.072 Z M549.316,180.432 L525.124,126.288 L500.932,180.432 L549.316,180.432 Z M607.5,213.264 C600.635966,210.863988 595.332019,207.69602 591.588,203.76 L595.764,195.552 C599.412018,199.200018 604.25997,202.151989 610.308,204.408 C616.35603,206.664011 622.595968,207.792 629.028,207.792 C638.052045,207.792 644.819977,206.136017 649.332,202.824 C653.844023,199.511983 656.1,195.216026 656.1,189.936 C656.1,185.90398 654.876012,182.688012 652.428,180.288 C649.979988,177.887988 646.980018,176.040006 643.428,174.744 C639.875982,173.447994 634.932032,172.032008 628.596,170.496 C621.011962,168.57599 614.964023,166.728009 610.452,164.952 C605.939977,163.175991 602.076016,160.464018 598.86,156.816 C595.643984,153.167982 594.036,148.224031 594.036,141.984 C594.036,136.895975 595.379987,132.264021 598.068,128.088 C600.756013,123.911979 604.883972,120.576012 610.452,118.08 C616.020028,115.583988 622.931959,114.336 631.188,114.336 C636.948029,114.336 642.587972,115.127992 648.108,116.712 C653.628028,118.296008 658.40398,120.479986 662.436,123.264 L658.836,131.76 C654.611979,128.975986 650.100024,126.888007 645.3,125.496 C640.499976,124.103993 635.796023,123.408 631.188,123.408 C622.355956,123.408 615.708022,125.111983 611.244,128.52 C606.779978,131.928017 604.548,136.319973 604.548,141.696 C604.548,145.72802 605.771988,148.967988 608.22,151.416 C610.668012,153.864012 613.739982,155.735994 617.436,157.032 C621.132018,158.328006 626.099969,159.743992 632.34,161.28 C639.732037,163.104009 645.707977,164.903991 650.268,166.68 C654.828023,168.456009 658.691984,171.143982 661.86,174.744 C665.028016,178.344018 666.612,183.215969 666.612,189.36 C666.612,194.448025 665.244014,199.079979 662.508,203.256 C659.771986,207.432021 655.572028,210.743988 649.908,213.192 C644.243972,215.640012 637.284041,216.864 629.028,216.864 C621.539963,216.864 614.364034,215.664012 607.5,213.264 Z M715.94,124.416 L680.516,124.416 L680.516,115.2 L762.02,115.2 L762.02,124.416 L726.596,124.416 L726.596,216 L715.94,216 L715.94,124.416 Z M845.188,189.072 L789.028,189.072 L776.932,216 L765.844,216 L811.924,115.2 L822.436,115.2 L868.516,216 L857.284,216 L845.188,189.072 Z M841.3,180.432 L817.108,126.288 L792.916,180.432 L841.3,180.432 Z M893.22,115.2 L934.26,115.2 C944.916053,115.2 954.323959,117.335979 962.484,121.608 C970.644041,125.880021 976.979977,131.831962 981.492,139.464 C986.004023,147.096038 988.26,155.807951 988.26,165.6 C988.26,175.392049 986.004023,184.103962 981.492,191.736 C976.979977,199.368038 970.644041,205.319979 962.484,209.592 C954.323959,213.864021 944.916053,216 934.26,216 L893.22,216 L893.22,115.2 Z M933.684,206.784 C942.516044,206.784 950.243967,205.032018 956.868,201.528 C963.492033,198.023982 968.627982,193.176031 972.276,186.984 C975.924018,180.791969 977.748,173.66404 977.748,165.6 C977.748,157.53596 975.924018,150.408031 972.276,144.216 C968.627982,138.023969 963.492033,133.176018 956.868,129.672 C950.243967,126.167982 942.516044,124.416 933.684,124.416 L903.876,124.416 L903.876,206.784 L933.684,206.784 Z M1124.852,115.2 L1124.852,216 L1114.628,216 L1114.628,135.36 L1075.028,203.184 L1069.988,203.184 L1030.388,135.792 L1030.388,216 L1020.164,216 L1020.164,115.2 L1028.948,115.2 L1072.724,189.936 L1116.068,115.2 L1124.852,115.2 Z M1165.684,115.2 L1176.34,115.2 L1176.34,216 L1165.684,216 L1165.684,115.2 Z M1301.412,115.2 L1301.412,216 L1292.628,216 L1227.828,134.208 L1227.828,216 L1217.172,216 L1217.172,115.2 L1225.956,115.2 L1290.9,196.992 L1290.9,115.2 L1301.412,115.2 Z" fill="#333333"></path>
    </g>
</svg>