<?xml version="1.0" standalone="no"?><!DOCTYPE svg PUBLIC "-//W3C//DTD SVG 1.1//EN" "http://www.w3.org/Graphics/SVG/1.1/DTD/svg11.dtd"><svg t="1622362571350" class="icon" viewBox="0 0 1097 1024" version="1.1" xmlns="http://www.w3.org/2000/svg" p-id="18345" xmlns:xlink="http://www.w3.org/1999/xlink" width="214.2578125" height="200"><defs><style type="text/css"></style></defs><path d="M501.248 385.024c60.928-1.243429 118.418286 35.84 152.137143 90.770286 50.249143 83.163429 116.297143 127.707429 140.141714 150.235428 29.769143 28.16 155.867429 95.085714 128.512 241.590857-27.136 144.457143-163.986286 150.893714-163.986286 150.893715s-64.073143 6.802286-174.299428-19.748572a402.285714 402.285714 0 0 0-82.505143-9.216 401.481143 401.481143 0 0 0-82.505143 9.216c-110.372571 26.550857-174.299429 19.748571-174.299428 19.748572s-136.777143-6.436571-163.986286-150.893715C52.955429 721.115429 179.2 654.189714 208.969143 626.029714c23.844571-22.528 89.965714-67.072 140.141714-150.235428 33.718857-54.857143 91.209143-92.013714 152.137143-90.770286z m-36.278857 169.325714H393.508571v110.738286H332.8c-76.946286 0-128.877714 56.32-128.877714 128 0 78.043429 48.786286 132.827429 133.558857 132.827429h127.561143v-371.565715zM753.371429 662.820571h-69.485715l0.146286 193.828572h-71.606857c-13.165714 0-23.259429-7.241143-23.259429-32.548572V662.966857h-69.193143v183.515429c0 47.250286 27.062857 79.433143 86.674286 79.433143H753.371429V662.820571z m-391.533715 71.314286l31.744 0.073143v122.587429h-59.392c-36.205714 0-59.245714-28.818286-59.245714-61.220572 0-32.256 21.723429-61.44 57.417143-61.44z m-231.204571-486.4c71.899429-6.509714 115.565714 67.584 122.368 132.608 7.753143 73.508571-18.358857 149.942857-93.476572 160.329143C72.411429 552.740571 19.675429 477.842286 19.163429 401.846857 18.724571 321.828571 61.44 253.952 130.56 247.734857z m741.376 0c69.046857 6.217143 111.835429 74.166857 111.323428 154.112-0.438857 75.995429-53.174857 150.893714-140.214857 138.825143-75.117714-10.313143-101.229714-86.820571-93.476571-160.329143 6.802286-65.024 50.468571-139.117714 122.368-132.608zM349.330286 1.243429c71.241143-3.730286 116.297143 62.244571 118.272 144.676571 1.682286 74.752-24.649143 150.893714-98.889143 157.988571-82.505143 7.826286-139.190857-62.683429-136.338286-151.04C234.861714 68.169143 285.988571 4.681143 349.330286 1.243429z m303.835428 0c63.268571 3.437714 114.468571 66.925714 116.955429 151.625142 2.852571 88.356571-53.906286 158.866286-136.411429 150.966858-74.166857-7.021714-100.644571-83.163429-98.816-157.988572C536.795429 63.561143 582.070857-2.413714 653.165714 1.316571z" fill="#2932E1" p-id="18346"></path></svg>