<?xml version="1.0" standalone="no"?><!DOCTYPE svg PUBLIC "-//W3C//DTD SVG 1.1//EN" "http://www.w3.org/Graphics/SVG/1.1/DTD/svg11.dtd"><svg t="1622362580710" class="icon" viewBox="0 0 1024 1024" version="1.1" xmlns="http://www.w3.org/2000/svg" p-id="19195" xmlns:xlink="http://www.w3.org/1999/xlink" width="200" height="200"><defs><style type="text/css"></style></defs><path d="M213.1976 515.482c0-33.485 5.632-65.588 15.616-95.693L53.4536 287.155A511.053 511.053 0 0 0 0.0016 515.482c0 82.048 19.2 159.436 53.35 228.147L228.6606 610.765c-10.24-30.72-15.437-62.9-15.463-95.283" fill="#FBBC05" p-id="19196"></path><path d="M521.2426 210.944a303.36 303.36 0 0 1 191.872 67.891l151.629-149.913C772.3536 49.306 653.9006 0.077 521.2436 0.077c-205.978 0-383.028 116.659-467.79 287.078L228.9416 419.79c40.397-121.498 155.597-208.87 292.352-208.87" fill="#EA4335" p-id="19197"></path><path d="M523.4706 813.235c-137.473 0-253.236-86.81-293.889-207.565L53.3256 737.51c85.172 169.37 263.092 285.261 470.144 285.261 127.719 0 249.677-44.39 341.248-127.641L697.3706 768.46c-47.18 29.108-106.65 44.8-173.952 44.8" fill="#34A853" p-id="19198"></path><path d="M1023.4376 510.618c0-30.26-4.787-62.874-11.904-93.133H523.4186v197.888h280.935c-14.004 67.481-52.224 119.347-106.957 153.088L864.7176 895.13c96.18-87.373 158.72-217.55 158.72-384.512" fill="#4285F4" p-id="19199"></path></svg>