<?xml version="1.0" encoding="utf-8"?>
<!-- Generator: Adobe Illustrator 24.0.1, SVG Export Plug-In . SVG Version: 6.00 Build 0)  -->
<svg version="1.1" id="图层_1" xmlns="http://www.w3.org/2000/svg" xmlns:xlink="http://www.w3.org/1999/xlink" x="0px" y="0px"
	 viewBox="0 0 200 200" style="enable-background:new 0 0 200 200;" xml:space="preserve">
<style type="text/css">
	.st0{fill:#F9101B;}
	.st1{fill:#030405;}
	.st2{fill:#FD9F19;}
</style>
<path class="st0" d="M149,95.3c0,0,20.3-48.4-47.5-24.3c2.1-25.4-8.9-40.8-42-22.1c0,0-107.5,72.9-29.1,119.5
	c0,0,98.6,40.7,143.4-34.9C182.7,106.3,156.4,94.9,149,95.3z M85.3,168.4c-32.6,3.7-61.1-10.8-63.6-32.4
	c-2.5-21.7,21.9-42.3,54.6-46c32.6-3.8,61.1,10.8,63.6,32.4C142.4,144,118,164.6,85.3,168.4z"/>
<path class="st1" d="M72,105.8c16-1.5,30,8.3,31.2,21.8c1.2,13.5-10.8,25.6-26.8,27c-16,1.5-30-8.3-31.2-21.8
	C44,119.3,56,107.2,72,105.8L72,105.8z M65.2,128c-4.9,0-9,3.8-9,8.4c0,4.6,4,8.4,9,8.4c5,0,9-3.8,9-8.4
	C74.2,131.7,70.2,128,65.2,128z M80.7,122.6c-2.2,0-4,1.8-4,4c0,2.2,1.8,4,4,4l0,0c2.2,0,4-1.8,4-4
	C84.7,124.4,82.9,122.6,80.7,122.6z"/>
<path class="st2" d="M168,83.5c-2,0-3.7-1.6-3.7-3.7c0-0.3,0-0.6,0.1-0.8c2.3-10.2,1.4-17.5-2.8-21.6c-6.9-6.7-20.8-3.5-20.9-3.5
	c-2,0.5-4-0.7-4.4-2.7c-0.5-2,0.7-4,2.7-4.4c0.7-0.2,18-4.3,27.8,5.3c6.1,6,7.7,15.6,4.8,28.5C171.2,82.3,169.7,83.5,168,83.5z"/>
<path class="st2" d="M191.9,93.5c-2.7,0-4.9-2.2-4.9-4.9c0-0.3,0-0.5,0.1-0.8c4.1-24.9,0.8-42.4-9.9-52
	c-16.5-14.7-46.1-6.3-46.4-6.3c-2.6,0.8-5.3-0.7-6.1-3.3c-0.7-2.6,0.8-5.3,3.4-6.1c1.4-0.4,34.9-10,55.6,8.3
	c13.4,11.9,17.9,32.4,13.1,60.9C196.4,91.8,194.3,93.5,191.9,93.5L191.9,93.5z"/>
</svg>
