<svg xmlns="http://www.w3.org/2000/svg" version="1.1" xmlns:xlink="http://www.w3.org/1999/xlink" xmlns:svgjs="http://svgjs.com/svgjs" width="4096" height="2160" preserveAspectRatio="none" viewBox="0 0 4096 2160"><g mask="url(&quot;#SvgjsMask1056&quot;)" fill="none"><rect width="4096" height="2160" x="0" y="0" fill="#0e2a47"></rect><use xlink:href="#SvgjsSymbol1063" x="0" y="0"></use><use xlink:href="#SvgjsSymbol1063" x="0" y="720"></use><use xlink:href="#SvgjsSymbol1063" x="0" y="1440"></use><use xlink:href="#SvgjsSymbol1063" x="720" y="0"></use><use xlink:href="#SvgjsSymbol1063" x="720" y="720"></use><use xlink:href="#SvgjsSymbol1063" x="720" y="1440"></use><use xlink:href="#SvgjsSymbol1063" x="1440" y="0"></use><use xlink:href="#SvgjsSymbol1063" x="1440" y="720"></use><use xlink:href="#SvgjsSymbol1063" x="1440" y="1440"></use><use xlink:href="#SvgjsSymbol1063" x="2160" y="0"></use><use xlink:href="#SvgjsSymbol1063" x="2160" y="720"></use><use xlink:href="#SvgjsSymbol1063" x="2160" y="1440"></use><use xlink:href="#SvgjsSymbol1063" x="2880" y="0"></use><use xlink:href="#SvgjsSymbol1063" x="2880" y="720"></use><use xlink:href="#SvgjsSymbol1063" x="2880" y="1440"></use><use xlink:href="#SvgjsSymbol1063" x="3600" y="0"></use><use xlink:href="#SvgjsSymbol1063" x="3600" y="720"></use><use xlink:href="#SvgjsSymbol1063" x="3600" y="1440"></use></g><defs><mask id="SvgjsMask1056"><rect width="4096" height="2160" fill="#ffffff"></rect></mask><path d="M-1 0 a1 1 0 1 0 2 0 a1 1 0 1 0 -2 0z" id="SvgjsPath1061"></path><path d="M-3 0 a3 3 0 1 0 6 0 a3 3 0 1 0 -6 0z" id="SvgjsPath1062"></path><path d="M-5 0 a5 5 0 1 0 10 0 a5 5 0 1 0 -10 0z" id="SvgjsPath1058"></path><path d="M2 -2 L-2 2z" id="SvgjsPath1059"></path><path d="M6 -6 L-6 6z" id="SvgjsPath1057"></path><path d="M30 -30 L-30 30z" id="SvgjsPath1060"></path></defs><symbol id="SvgjsSymbol1063"><use xlink:href="#SvgjsPath1057" x="30" y="30" stroke="#1c538e"></use><use xlink:href="#SvgjsPath1057" x="30" y="90" stroke="#1c538e"></use><use xlink:href="#SvgjsPath1057" x="30" y="150" stroke="#1c538e"></use><use xlink:href="#SvgjsPath1058" x="30" y="210" stroke="#1c538e"></use><use xlink:href="#SvgjsPath1057" x="30" y="270" stroke="#1c538e"></use><use xlink:href="#SvgjsPath1059" x="30" y="330" stroke="#1c538e"></use><use xlink:href="#SvgjsPath1058" x="30" y="390" stroke="#1c538e"></use><use xlink:href="#SvgjsPath1057" x="30" y="450" stroke="#1c538e"></use><use xlink:href="#SvgjsPath1058" x="30" y="510" stroke="#1c538e"></use><use xlink:href="#SvgjsPath1058" x="30" y="570" stroke="#1c538e"></use><use xlink:href="#SvgjsPath1057" x="30" y="630" stroke="#1c538e"></use><use xlink:href="#SvgjsPath1059" x="30" y="690" stroke="#1c538e"></use><use xlink:href="#SvgjsPath1060" x="90" y="30" stroke="#1c538e" stroke-width="3"></use><use xlink:href="#SvgjsPath1061" x="90" y="90" stroke="#1c538e"></use><use xlink:href="#SvgjsPath1059" x="90" y="150" stroke="#1c538e"></use><use xlink:href="#SvgjsPath1057" x="90" y="210" stroke="#1c538e"></use><use xlink:href="#SvgjsPath1058" x="90" y="270" stroke="#1c538e"></use><use xlink:href="#SvgjsPath1062" x="90" y="330" stroke="#1c538e"></use><use xlink:href="#SvgjsPath1057" x="90" y="390" stroke="#1c538e"></use><use xlink:href="#SvgjsPath1058" x="90" y="450" stroke="#1c538e"></use><use xlink:href="#SvgjsPath1058" x="90" y="510" stroke="#1c538e"></use><use xlink:href="#SvgjsPath1059" x="90" y="570" stroke="#1c538e"></use><use xlink:href="#SvgjsPath1062" x="90" y="630" stroke="#1c538e"></use><use xlink:href="#SvgjsPath1057" x="90" y="690" stroke="#1c538e"></use><use xlink:href="#SvgjsPath1057" x="150" y="30" stroke="#1c538e"></use><use xlink:href="#SvgjsPath1058" x="150" y="90" stroke="#1c538e"></use><use xlink:href="#SvgjsPath1059" x="150" y="150" stroke="#1c538e"></use><use xlink:href="#SvgjsPath1058" x="150" y="210" stroke="#1c538e"></use><use xlink:href="#SvgjsPath1058" x="150" y="270" stroke="#1c538e"></use><use xlink:href="#SvgjsPath1057" x="150" y="330" stroke="#1c538e"></use><use xlink:href="#SvgjsPath1058" x="150" y="390" stroke="#1c538e"></use><use xlink:href="#SvgjsPath1058" x="150" y="450" stroke="#1c538e"></use><use xlink:href="#SvgjsPath1058" x="150" y="510" stroke="#1c538e"></use><use xlink:href="#SvgjsPath1058" x="150" y="570" stroke="#1c538e"></use><use xlink:href="#SvgjsPath1062" x="150" y="630" stroke="#1c538e"></use><use xlink:href="#SvgjsPath1059" x="150" y="690" stroke="#1c538e"></use><use xlink:href="#SvgjsPath1057" x="210" y="30" stroke="#1c538e"></use><use xlink:href="#SvgjsPath1058" x="210" y="90" stroke="#1c538e"></use><use xlink:href="#SvgjsPath1060" x="210" y="150" stroke="#1c538e" stroke-width="3"></use><use xlink:href="#SvgjsPath1061" x="210" y="210" stroke="#1c538e"></use><use xlink:href="#SvgjsPath1061" x="210" y="270" stroke="#1c538e"></use><use xlink:href="#SvgjsPath1057" x="210" y="330" stroke="#1c538e"></use><use xlink:href="#SvgjsPath1062" x="210" y="390" stroke="#1c538e"></use><use xlink:href="#SvgjsPath1059" x="210" y="450" stroke="#1c538e"></use><use xlink:href="#SvgjsPath1062" x="210" y="510" stroke="#1c538e"></use><use xlink:href="#SvgjsPath1059" x="210" y="570" stroke="#1c538e"></use><use xlink:href="#SvgjsPath1059" x="210" y="630" stroke="#1c538e"></use><use xlink:href="#SvgjsPath1057" x="210" y="690" stroke="#1c538e"></use><use xlink:href="#SvgjsPath1058" x="270" y="30" stroke="#1c538e"></use><use xlink:href="#SvgjsPath1059" x="270" y="90" stroke="#1c538e"></use><use xlink:href="#SvgjsPath1058" x="270" y="150" stroke="#1c538e"></use><use xlink:href="#SvgjsPath1057" x="270" y="210" stroke="#1c538e"></use><use xlink:href="#SvgjsPath1057" x="270" y="270" stroke="#1c538e"></use><use xlink:href="#SvgjsPath1058" x="270" y="330" stroke="#1c538e"></use><use xlink:href="#SvgjsPath1057" x="270" y="390" stroke="#1c538e"></use><use xlink:href="#SvgjsPath1058" x="270" y="450" stroke="#1c538e"></use><use xlink:href="#SvgjsPath1062" x="270" y="510" stroke="#1c538e"></use><use xlink:href="#SvgjsPath1057" x="270" y="570" stroke="#1c538e"></use><use xlink:href="#SvgjsPath1059" x="270" y="630" stroke="#1c538e"></use><use xlink:href="#SvgjsPath1062" x="270" y="690" stroke="#1c538e"></use><use xlink:href="#SvgjsPath1062" x="330" y="30" stroke="#1c538e"></use><use xlink:href="#SvgjsPath1062" x="330" y="90" stroke="#1c538e"></use><use xlink:href="#SvgjsPath1061" x="330" y="150" stroke="#1c538e"></use><use xlink:href="#SvgjsPath1057" x="330" y="210" stroke="#1c538e"></use><use xlink:href="#SvgjsPath1058" x="330" y="270" stroke="#1c538e"></use><use xlink:href="#SvgjsPath1057" x="330" y="330" stroke="#1c538e"></use><use xlink:href="#SvgjsPath1062" x="330" y="390" stroke="#1c538e"></use><use xlink:href="#SvgjsPath1058" x="330" y="450" stroke="#1c538e"></use><use xlink:href="#SvgjsPath1060" x="330" y="510" stroke="#1c538e" stroke-width="3"></use><use xlink:href="#SvgjsPath1057" x="330" y="570" stroke="#1c538e"></use><use xlink:href="#SvgjsPath1060" x="330" y="630" stroke="#1c538e" stroke-width="3"></use><use xlink:href="#SvgjsPath1058" x="330" y="690" stroke="#1c538e"></use><use xlink:href="#SvgjsPath1058" x="390" y="30" stroke="#1c538e"></use><use xlink:href="#SvgjsPath1062" x="390" y="90" stroke="#1c538e"></use><use xlink:href="#SvgjsPath1058" x="390" y="150" stroke="#1c538e"></use><use xlink:href="#SvgjsPath1057" x="390" y="210" stroke="#1c538e"></use><use xlink:href="#SvgjsPath1058" x="390" y="270" stroke="#1c538e"></use><use xlink:href="#SvgjsPath1058" x="390" y="330" stroke="#1c538e"></use><use xlink:href="#SvgjsPath1058" x="390" y="390" stroke="#1c538e"></use><use xlink:href="#SvgjsPath1059" x="390" y="450" stroke="#1c538e"></use><use xlink:href="#SvgjsPath1058" x="390" y="510" stroke="#1c538e"></use><use xlink:href="#SvgjsPath1058" x="390" y="570" stroke="#1c538e"></use><use xlink:href="#SvgjsPath1058" x="390" y="630" stroke="#1c538e"></use><use xlink:href="#SvgjsPath1058" x="390" y="690" stroke="#1c538e"></use><use xlink:href="#SvgjsPath1057" x="450" y="30" stroke="#1c538e"></use><use xlink:href="#SvgjsPath1059" x="450" y="90" stroke="#1c538e"></use><use xlink:href="#SvgjsPath1058" x="450" y="150" stroke="#1c538e"></use><use xlink:href="#SvgjsPath1059" x="450" y="210" stroke="#1c538e"></use><use xlink:href="#SvgjsPath1060" x="450" y="270" stroke="#1c538e" stroke-width="3"></use><use xlink:href="#SvgjsPath1058" x="450" y="330" stroke="#1c538e"></use><use xlink:href="#SvgjsPath1057" x="450" y="390" stroke="#1c538e"></use><use xlink:href="#SvgjsPath1062" x="450" y="450" stroke="#1c538e"></use><use xlink:href="#SvgjsPath1061" x="450" y="510" stroke="#1c538e"></use><use xlink:href="#SvgjsPath1061" x="450" y="570" stroke="#1c538e"></use><use xlink:href="#SvgjsPath1058" x="450" y="630" stroke="#1c538e"></use><use xlink:href="#SvgjsPath1058" x="450" y="690" stroke="#1c538e"></use><use xlink:href="#SvgjsPath1057" x="510" y="30" stroke="#1c538e"></use><use xlink:href="#SvgjsPath1057" x="510" y="90" stroke="#1c538e"></use><use xlink:href="#SvgjsPath1059" x="510" y="150" stroke="#1c538e"></use><use xlink:href="#SvgjsPath1059" x="510" y="210" stroke="#1c538e"></use><use xlink:href="#SvgjsPath1057" x="510" y="270" stroke="#1c538e"></use><use xlink:href="#SvgjsPath1058" x="510" y="330" stroke="#1c538e"></use><use xlink:href="#SvgjsPath1062" x="510" y="390" stroke="#1c538e"></use><use xlink:href="#SvgjsPath1061" x="510" y="450" stroke="#1c538e"></use><use xlink:href="#SvgjsPath1058" x="510" y="510" stroke="#1c538e"></use><use xlink:href="#SvgjsPath1060" x="510" y="570" stroke="#1c538e" stroke-width="3"></use><use xlink:href="#SvgjsPath1057" x="510" y="630" stroke="#1c538e"></use><use xlink:href="#SvgjsPath1057" x="510" y="690" stroke="#1c538e"></use><use xlink:href="#SvgjsPath1058" x="570" y="30" stroke="#1c538e"></use><use xlink:href="#SvgjsPath1061" x="570" y="90" stroke="#1c538e"></use><use xlink:href="#SvgjsPath1062" x="570" y="150" stroke="#1c538e"></use><use xlink:href="#SvgjsPath1057" x="570" y="210" stroke="#1c538e"></use><use xlink:href="#SvgjsPath1059" x="570" y="270" stroke="#1c538e"></use><use xlink:href="#SvgjsPath1057" x="570" y="330" stroke="#1c538e"></use><use xlink:href="#SvgjsPath1057" x="570" y="390" stroke="#1c538e"></use><use xlink:href="#SvgjsPath1058" x="570" y="450" stroke="#1c538e"></use><use xlink:href="#SvgjsPath1057" x="570" y="510" stroke="#1c538e"></use><use xlink:href="#SvgjsPath1058" x="570" y="570" stroke="#1c538e"></use><use xlink:href="#SvgjsPath1061" x="570" y="630" stroke="#1c538e"></use><use xlink:href="#SvgjsPath1058" x="570" y="690" stroke="#1c538e"></use><use xlink:href="#SvgjsPath1057" x="630" y="30" stroke="#1c538e"></use><use xlink:href="#SvgjsPath1058" x="630" y="90" stroke="#1c538e"></use><use xlink:href="#SvgjsPath1061" x="630" y="150" stroke="#1c538e"></use><use xlink:href="#SvgjsPath1059" x="630" y="210" stroke="#1c538e"></use><use xlink:href="#SvgjsPath1062" x="630" y="270" stroke="#1c538e"></use><use xlink:href="#SvgjsPath1059" x="630" y="330" stroke="#1c538e"></use><use xlink:href="#SvgjsPath1058" x="630" y="390" stroke="#1c538e"></use><use xlink:href="#SvgjsPath1057" x="630" y="450" stroke="#1c538e"></use><use xlink:href="#SvgjsPath1058" x="630" y="510" stroke="#1c538e"></use><use xlink:href="#SvgjsPath1058" x="630" y="570" stroke="#1c538e"></use><use xlink:href="#SvgjsPath1058" x="630" y="630" stroke="#1c538e"></use><use xlink:href="#SvgjsPath1058" x="630" y="690" stroke="#1c538e"></use><use xlink:href="#SvgjsPath1058" x="690" y="30" stroke="#1c538e"></use><use xlink:href="#SvgjsPath1059" x="690" y="90" stroke="#1c538e"></use><use xlink:href="#SvgjsPath1057" x="690" y="150" stroke="#1c538e"></use><use xlink:href="#SvgjsPath1062" x="690" y="210" stroke="#1c538e"></use><use xlink:href="#SvgjsPath1057" x="690" y="270" stroke="#1c538e"></use><use xlink:href="#SvgjsPath1058" x="690" y="330" stroke="#1c538e"></use><use xlink:href="#SvgjsPath1058" x="690" y="390" stroke="#1c538e"></use><use xlink:href="#SvgjsPath1061" x="690" y="450" stroke="#1c538e"></use><use xlink:href="#SvgjsPath1061" x="690" y="510" stroke="#1c538e"></use><use xlink:href="#SvgjsPath1057" x="690" y="570" stroke="#1c538e"></use><use xlink:href="#SvgjsPath1057" x="690" y="630" stroke="#1c538e"></use><use xlink:href="#SvgjsPath1058" x="690" y="690" stroke="#1c538e"></use></symbol></svg>